<?xml version="1.0" encoding="UTF-8" standalone="no"?>
<!-- Created with Inkscape (http://www.inkscape.org/) -->

<svg
   xmlns:dc="http://purl.org/dc/elements/1.1/"
   xmlns:cc="http://creativecommons.org/ns#"
   xmlns:rdf="http://www.w3.org/1999/02/22-rdf-syntax-ns#"
   xmlns:svg="http://www.w3.org/2000/svg"
   xmlns="http://www.w3.org/2000/svg"
   xmlns:sodipodi="http://sodipodi.sourceforge.net/DTD/sodipodi-0.dtd"
   xmlns:inkscape="http://www.inkscape.org/namespaces/inkscape"
   version="1.1"
   id="svg10"
   width="359.06247"
   height="402.82547"
   viewBox="0 0 359.06247 402.82547"
   sodipodi:docname="komunity_logo-white_1-1.svg"
   inkscape:version="0.92.4 (5da689c313, 2019-01-14)">
  <metadata
     id="metadata16">
    <rdf:RDF>
      <cc:Work
         rdf:about="">
        <dc:format>image/svg+xml</dc:format>
        <dc:type
           rdf:resource="http://purl.org/dc/dcmitype/StillImage" />
        <dc:title></dc:title>
      </cc:Work>
    </rdf:RDF>
  </metadata>
  <defs
     id="defs14" />
  <sodipodi:namedview
     pagecolor="#ffffff"
     bordercolor="#666666"
     borderopacity="1"
     objecttolerance="10"
     gridtolerance="10"
     guidetolerance="10"
     inkscape:pageopacity="0"
     inkscape:pageshadow="2"
     inkscape:window-width="1366"
     inkscape:window-height="705"
     id="namedview12"
     showgrid="false"
     inkscape:zoom="0.65073816"
     inkscape:cx="23.491411"
     inkscape:cy="165.20259"
     inkscape:window-x="1272"
     inkscape:window-y="248"
     inkscape:window-maximized="1"
     inkscape:current-layer="svg10" />
  <path
     style="fill:#000000;stroke-width:0.47064856"
     d="M 196.05079,402.3206 C 155.85979,399.60851 116.93463,385.7207 84.402258,362.4864 69.165358,351.60435 53.601308,336.83323 42.458038,322.6791 18.880698,292.73124 4.9972575,259.18313 0.64202753,221.63426 c -0.85624,-7.38216 -0.85598,-33.49885 4.4e-4,-40.87723 C 2.3773975,165.80996 5.8887275,150.40553 10.588288,137.12404 31.940598,76.780443 82.050648,29.416438 145.65222,9.4616334 156.90864,5.9299663 168.79879,3.348156 184.23487,1.0838364 189.03834,0.3791981 197.55428,0.2911667 274.30121,0.1528218 L 359.06246,0 v 25.273469 25.273508 l -74.87443,0.007 c -76.24255,0.007 -83.66793,0.147391 -95.61866,1.803395 -17.80822,2.467791 -36.95482,8.543619 -52.56281,16.679858 -38.364692,19.99901 -66.551222,54.29595 -77.405552,94.18591 -3.79853,13.95972 -5.01219,23.15446 -5.01219,37.97242 0,14.81796 1.21366,24.01271 5.01219,37.9724 12.33421,45.32857 46.903902,83.02388 92.757462,101.14407 11.27224,4.45451 26.31875,8.33391 38.42264,9.90643 11.11059,1.44342 20.68471,1.60693 94.64806,1.61631 l 74.63329,0.009 v 25.49086 25.49085 l -78.73272,-0.0662 c -43.30297,-0.036 -81.22851,-0.234 -84.27895,-0.43985 z"
     id="path6150"
     inkscape:connector-curvature="0" />
  <path
     style="fill:#000000;stroke-width:0.45022312"
     d="m 201.0272,327.80878 c -6.04243,-0.53695 -15.75529,-2.20652 -21.7656,-3.74135 -17.44835,-4.45568 -34.60663,-12.98678 -48.91943,-24.32271 -5.5872,-4.42512 -16.1188,-14.88118 -20.42638,-20.27984 -13.465932,-16.8768 -22.706162,-36.89054 -26.606802,-57.62856 -1.61317,-8.57655 -2.04115,-14.87731 -2.04115,-30.04962 V 176.814 h 21.160482 21.1605 l 0.003,13.16903 c 0.001,7.24298 0.2124,14.99097 0.46747,17.21776 2.30722,20.14121 11.58817,39.1037 26.08644,53.299 18.49077,18.10431 44.5539,27.35599 69.855,24.79658 37.2766,-3.77085 68.06838,-30.35487 77.15513,-66.61161 2.05985,-8.21889 2.46961,-12.84129 2.46961,-27.85906 V 176.814 h 21.44965 21.44964 l -0.26505,15.87038 c -0.27925,16.71992 -0.70957,21.57439 -2.81916,31.80469 -4.93844,23.94817 -16.7301,45.99908 -34.18281,63.92343 -18.08143,18.57002 -40.16952,31.03107 -64.83662,36.57774 -9.09554,2.04525 -15.38178,2.72279 -26.56316,2.86304 -5.94296,0.0745 -11.71705,0.0546 -12.83138,-0.0445 z"
     id="path6148"
     inkscape:connector-curvature="0" />
  <path
     style="fill:#000000;stroke-width:0.45022312"
     d="m 201.25232,249.50016 c -22.7655,-3.84663 -41.88629,-20.31365 -49.07278,-42.26193 -2.40442,-7.34337 -3.08004,-12.55398 -2.79657,-21.56884 0.25299,-8.04578 0.7906,-11.38424 2.83982,-17.63473 3.06231,-9.34074 7.93185,-17.0773 15.44749,-24.54254 12.37745,-12.2944 26.50969,-18.13566 43.93717,-18.16048 7.9074,-0.0118 13.05368,0.79209 20.03493,3.12753 27.21493,9.10427 44.87738,35.97527 42.32903,64.39782 -2.61337,29.14777 -23.78812,52.03227 -52.44563,56.68039 -4.99777,0.81061 -15.36844,0.79157 -20.27346,-0.0373 z"
     id="path6144"
     inkscape:connector-curvature="0" />
  <g
     inkscape:groupmode="layer"
     id="layer1"
     inkscape:label="Layer 1"
     style="display:inline"
     transform="translate(-148.99892,-4.0380476)" />
  <path
     style="opacity:0.01000001;fill:#ffff00;stroke-width:0.93765354"
     d="m 195.55034,247.70858 c -21.46597,-6.13978 -38.24102,-23.02239 -43.92552,-44.20713 -1.9175,-7.14614 -2.13169,-22.59283 -0.41697,-30.07481 2.10418,-9.18147 7.84419,-19.64232 14.95747,-27.25916 12.10768,-12.96475 25.3426,-19.27547 42.25871,-20.14985 11.47226,-0.59301 20.43893,1.26237 30.94424,6.40288 6.4376,3.15009 9.50485,5.45219 15.95225,11.97286 12.69609,12.84032 18.17476,25.9097 18.1241,43.23492 -0.0423,14.46283 -4.14775,26.61411 -12.89865,38.17739 -8.05966,10.64986 -21.16849,19.14747 -34.31907,22.24691 -8.28732,1.95321 -23.23088,1.78565 -30.67656,-0.34401 z"
     id="path6152"
     inkscape:connector-curvature="0" />
</svg>
